<svg width="147" height="37" viewBox="0 0 147 37" fill="none" xmlns="http://www.w3.org/2000/svg">
<mask id="path-1-outside-1_2490_1761" maskUnits="userSpaceOnUse" x="-0.869141" y="-0.767578" width="148" height="37" fill="black">
<rect fill="#04363d" x="-0.869141" y="-0.767578" width="148" height="37"/>
<path d="M13.9752 0.232422C15.9511 0.232422 17.784 0.583404 19.4739 1.28537C21.1638 1.98733 22.6327 2.97528 23.8807 4.24922C25.1286 5.52315 26.1035 7.00508 26.8055 8.69499C27.5075 10.3849 27.8585 12.2308 27.8585 14.2327C27.8585 16.2346 27.5075 18.0935 26.8055 19.8094C26.1035 21.4993 25.1286 22.9813 23.8807 24.2552C22.6327 25.5291 21.1638 26.5301 19.4739 27.2581C17.784 27.96 15.9511 28.311 13.9752 28.311C12.0253 28.311 10.2053 27.96 8.51543 27.2581C6.82552 26.5301 5.35659 25.5291 4.10866 24.2552C2.86072 22.9813 1.88577 21.4993 1.18381 19.8094C0.481841 18.0935 0.130859 16.2346 0.130859 14.2327C0.130859 12.2308 0.481841 10.3849 1.18381 8.69499C1.88577 7.00508 2.86072 5.52315 4.10866 4.24922C5.35659 2.97528 6.82552 1.98733 8.51543 1.28537C10.2053 0.583404 12.0253 0.232422 13.9752 0.232422ZM13.9752 4.6782C12.2592 4.6782 10.6993 5.10718 9.29539 5.96513C7.91746 6.79709 6.82552 7.92803 6.01956 9.35796C5.2136 10.7879 4.81062 12.4128 4.81062 14.2327C4.81062 16.0526 5.2136 17.6905 6.01956 19.1465C6.82552 20.6024 7.91746 21.7593 9.29539 22.6173C10.6993 23.4492 12.2592 23.8652 13.9752 23.8652C15.7171 23.8652 17.277 23.4492 18.6549 22.6173C20.0588 21.7593 21.1638 20.6024 21.9697 19.1465C22.7757 17.6905 23.1787 16.0526 23.1787 14.2327C23.1787 12.4128 22.7757 10.7879 21.9697 9.35796C21.1638 7.92803 20.0588 6.79709 18.6549 5.96513C17.277 5.10718 15.7171 4.6782 13.9752 4.6782Z"/>
<path d="M41.1584 8.33418C42.8483 8.33418 44.3822 8.78916 45.7602 9.69911C47.1381 10.5831 48.23 11.779 49.036 13.2869C49.868 14.7689 50.2839 16.4328 50.2839 18.2787C50.2839 20.0986 49.868 21.7625 49.036 23.2704C48.23 24.7783 47.1381 25.9743 45.7602 26.8582C44.3822 27.7422 42.8483 28.1842 41.1584 28.1842C39.6245 28.1842 38.2726 27.8592 37.1026 27.2092C35.9587 26.5333 35.0487 25.5843 34.3727 24.3624V34.6847L30.044 35.8716V8.72416H34.3727V12.156C35.0487 10.934 35.9587 9.9981 37.1026 9.34813C38.2726 8.67216 39.6245 8.33418 41.1584 8.33418ZM40.2225 12.468C39.1045 12.468 38.1036 12.728 37.2196 13.2479C36.3356 13.7419 35.6337 14.4309 35.1137 15.3148C34.6197 16.1728 34.3727 17.1607 34.3727 18.2787C34.3727 19.3706 34.6197 20.3586 35.1137 21.2425C35.6337 22.1005 36.3356 22.7894 37.2196 23.3094C38.1036 23.8034 39.1045 24.0504 40.2225 24.0504C41.3144 24.0504 42.2893 23.7904 43.1473 23.2704C44.0313 22.7505 44.7202 22.0615 45.2142 21.2035C45.7342 20.3196 45.9942 19.3446 45.9942 18.2787C45.9942 17.1867 45.7342 16.2118 45.2142 15.3538C44.7202 14.4699 44.0313 13.7679 43.1473 13.2479C42.2893 12.728 41.3144 12.468 40.2225 12.468Z"/>
<path d="M82.3462 16.1019V27.7623H77.9395V17.0768C77.9395 15.6469 77.5755 14.5289 76.8475 13.723C76.1196 12.891 75.1056 12.4751 73.8057 12.4751C73.1037 12.4751 72.4278 12.631 71.7778 12.943C71.1278 13.255 70.5948 13.749 70.1789 14.425C69.7629 15.1009 69.5549 15.9849 69.5549 17.0768V27.7623H65.1871V17.0768C65.1871 15.6209 64.8101 14.49 64.0562 13.684C63.3282 12.878 62.3142 12.4751 61.0143 12.4751C60.3123 12.4751 59.6364 12.631 58.9864 12.943C58.3364 13.255 57.8035 13.749 57.3875 14.425C56.9715 15.1009 56.7635 15.9849 56.7635 17.0768V27.7623H52.4347V8.69225H56.7635V11.3831C57.4655 10.2132 58.3624 9.40721 59.4544 8.96523C60.5463 8.52326 61.5863 8.30227 62.5742 8.30227C63.9522 8.30227 65.1221 8.57525 66.0841 9.12122C67.072 9.6412 67.865 10.4862 68.463 11.6561C69.0089 10.6161 69.8279 9.79719 70.9198 9.19922C72.0378 8.60125 73.2467 8.30227 74.5466 8.30227C76.0806 8.30227 77.4325 8.62725 78.6024 9.27722C79.7724 9.90118 80.6823 10.7981 81.3323 11.9681C82.0083 13.112 82.3462 14.49 82.3462 16.1019Z"/>
<path d="M104.767 8.69225V27.7623H100.4V24.4085C99.6977 25.6044 98.7747 26.5273 97.6308 27.1773C96.5128 27.8273 95.1869 28.1523 93.653 28.1523C91.9631 28.1523 90.4162 27.7103 89.0122 26.8263C87.6343 25.9164 86.5423 24.7074 85.7364 23.1995C84.9304 21.6916 84.5274 20.0277 84.5274 18.2078C84.5274 16.3619 84.9304 14.6979 85.7364 13.216C86.5423 11.7081 87.6343 10.5122 89.0122 9.6282C90.4162 8.74424 91.9631 8.30227 93.653 8.30227C95.1869 8.30227 96.5128 8.62725 97.6308 9.27722C98.7747 9.92718 99.6977 10.8501 100.4 12.0461V8.69225H104.767ZM94.589 24.0185C95.7069 24.0185 96.6948 23.7715 97.5528 23.2775C98.4367 22.7575 99.1257 22.0556 99.6197 21.1716C100.14 20.2877 100.4 19.2997 100.4 18.2078C100.4 17.1158 100.14 16.1409 99.6197 15.2829C99.1257 14.399 98.4367 13.71 97.5528 13.216C96.6948 12.696 95.7069 12.4361 94.589 12.4361C93.497 12.4361 92.509 12.696 91.6251 13.216C90.7671 13.736 90.0782 14.438 89.5582 15.3219C89.0642 16.1799 88.8172 17.1418 88.8172 18.2078C88.8172 19.2737 89.0642 20.2487 89.5582 21.1326C90.0782 22.0166 90.7671 22.7185 91.6251 23.2385C92.509 23.7585 93.497 24.0185 94.589 24.0185Z"/>
<path d="M107.976 8.54563H112.305V27.6157H107.976V8.54563Z"/>
<path d="M119.847 8.34697V11.3498C120.445 10.2839 121.238 9.45192 122.226 8.85395C123.214 8.25598 124.345 7.95699 125.619 7.95699C128.063 7.95699 129.987 8.72395 131.391 10.2579C132.821 11.7918 133.536 13.8847 133.536 16.5366V27.417H129.168V17.0825C129.168 15.5746 128.739 14.3787 127.881 13.4947C127.049 12.5848 125.944 12.1298 124.566 12.1298C123.136 12.1298 121.992 12.5848 121.134 13.4947C120.276 14.3787 119.847 15.5746 119.847 17.0825V27.417H115.519V8.34697H119.847Z"/>
<path d="M143.991 27.4645C141.885 27.4645 140.156 26.8275 138.804 25.5536C137.452 24.2537 136.776 22.4208 136.776 20.0549V12.2553V8.12149L136.814 4.16894L141.148 2.99748L141.144 8.12149H146.136V12.2553H141.144V19.8599C141.144 20.9778 141.469 21.8488 142.119 22.4728C142.795 23.0967 143.614 23.4087 144.576 23.4087C144.81 23.4087 145.07 23.3827 145.356 23.3307C145.668 23.2787 145.915 23.2267 146.097 23.1747L146.331 26.9965C146.019 27.1525 145.655 27.2695 145.239 27.3475C144.823 27.4255 144.407 27.4645 143.991 27.4645Z"/>
</mask>
<path d="M13.9752 0.232422C15.9511 0.232422 17.784 0.583404 19.4739 1.28537C21.1638 1.98733 22.6327 2.97528 23.8807 4.24922C25.1286 5.52315 26.1035 7.00508 26.8055 8.69499C27.5075 10.3849 27.8585 12.2308 27.8585 14.2327C27.8585 16.2346 27.5075 18.0935 26.8055 19.8094C26.1035 21.4993 25.1286 22.9813 23.8807 24.2552C22.6327 25.5291 21.1638 26.5301 19.4739 27.2581C17.784 27.96 15.9511 28.311 13.9752 28.311C12.0253 28.311 10.2053 27.96 8.51543 27.2581C6.82552 26.5301 5.35659 25.5291 4.10866 24.2552C2.86072 22.9813 1.88577 21.4993 1.18381 19.8094C0.481841 18.0935 0.130859 16.2346 0.130859 14.2327C0.130859 12.2308 0.481841 10.3849 1.18381 8.69499C1.88577 7.00508 2.86072 5.52315 4.10866 4.24922C5.35659 2.97528 6.82552 1.98733 8.51543 1.28537C10.2053 0.583404 12.0253 0.232422 13.9752 0.232422ZM13.9752 4.6782C12.2592 4.6782 10.6993 5.10718 9.29539 5.96513C7.91746 6.79709 6.82552 7.92803 6.01956 9.35796C5.2136 10.7879 4.81062 12.4128 4.81062 14.2327C4.81062 16.0526 5.2136 17.6905 6.01956 19.1465C6.82552 20.6024 7.91746 21.7593 9.29539 22.6173C10.6993 23.4492 12.2592 23.8652 13.9752 23.8652C15.7171 23.8652 17.277 23.4492 18.6549 22.6173C20.0588 21.7593 21.1638 20.6024 21.9697 19.1465C22.7757 17.6905 23.1787 16.0526 23.1787 14.2327C23.1787 12.4128 22.7757 10.7879 21.9697 9.35796C21.1638 7.92803 20.0588 6.79709 18.6549 5.96513C17.277 5.10718 15.7171 4.6782 13.9752 4.6782Z" fill="#04363d"/>
<path d="M41.1584 8.33418C42.8483 8.33418 44.3822 8.78916 45.7602 9.69911C47.1381 10.5831 48.23 11.779 49.036 13.2869C49.868 14.7689 50.2839 16.4328 50.2839 18.2787C50.2839 20.0986 49.868 21.7625 49.036 23.2704C48.23 24.7783 47.1381 25.9743 45.7602 26.8582C44.3822 27.7422 42.8483 28.1842 41.1584 28.1842C39.6245 28.1842 38.2726 27.8592 37.1026 27.2092C35.9587 26.5333 35.0487 25.5843 34.3727 24.3624V34.6847L30.044 35.8716V8.72416H34.3727V12.156C35.0487 10.934 35.9587 9.9981 37.1026 9.34813C38.2726 8.67216 39.6245 8.33418 41.1584 8.33418ZM40.2225 12.468C39.1045 12.468 38.1036 12.728 37.2196 13.2479C36.3356 13.7419 35.6337 14.4309 35.1137 15.3148C34.6197 16.1728 34.3727 17.1607 34.3727 18.2787C34.3727 19.3706 34.6197 20.3586 35.1137 21.2425C35.6337 22.1005 36.3356 22.7894 37.2196 23.3094C38.1036 23.8034 39.1045 24.0504 40.2225 24.0504C41.3144 24.0504 42.2893 23.7904 43.1473 23.2704C44.0313 22.7505 44.7202 22.0615 45.2142 21.2035C45.7342 20.3196 45.9942 19.3446 45.9942 18.2787C45.9942 17.1867 45.7342 16.2118 45.2142 15.3538C44.7202 14.4699 44.0313 13.7679 43.1473 13.2479C42.2893 12.728 41.3144 12.468 40.2225 12.468Z" fill="#04363d"/>
<path d="M82.3462 16.1019V27.7623H77.9395V17.0768C77.9395 15.6469 77.5755 14.5289 76.8475 13.723C76.1196 12.891 75.1056 12.4751 73.8057 12.4751C73.1037 12.4751 72.4278 12.631 71.7778 12.943C71.1278 13.255 70.5948 13.749 70.1789 14.425C69.7629 15.1009 69.5549 15.9849 69.5549 17.0768V27.7623H65.1871V17.0768C65.1871 15.6209 64.8101 14.49 64.0562 13.684C63.3282 12.878 62.3142 12.4751 61.0143 12.4751C60.3123 12.4751 59.6364 12.631 58.9864 12.943C58.3364 13.255 57.8035 13.749 57.3875 14.425C56.9715 15.1009 56.7635 15.9849 56.7635 17.0768V27.7623H52.4347V8.69225H56.7635V11.3831C57.4655 10.2132 58.3624 9.40721 59.4544 8.96523C60.5463 8.52326 61.5863 8.30227 62.5742 8.30227C63.9522 8.30227 65.1221 8.57525 66.0841 9.12122C67.072 9.6412 67.865 10.4862 68.463 11.6561C69.0089 10.6161 69.8279 9.79719 70.9198 9.19922C72.0378 8.60125 73.2467 8.30227 74.5466 8.30227C76.0806 8.30227 77.4325 8.62725 78.6024 9.27722C79.7724 9.90118 80.6823 10.7981 81.3323 11.9681C82.0083 13.112 82.3462 14.49 82.3462 16.1019Z" fill="#04363d"/>
<path d="M104.767 8.69225V27.7623H100.4V24.4085C99.6977 25.6044 98.7747 26.5273 97.6308 27.1773C96.5128 27.8273 95.1869 28.1523 93.653 28.1523C91.9631 28.1523 90.4162 27.7103 89.0122 26.8263C87.6343 25.9164 86.5423 24.7074 85.7364 23.1995C84.9304 21.6916 84.5274 20.0277 84.5274 18.2078C84.5274 16.3619 84.9304 14.6979 85.7364 13.216C86.5423 11.7081 87.6343 10.5122 89.0122 9.6282C90.4162 8.74424 91.9631 8.30227 93.653 8.30227C95.1869 8.30227 96.5128 8.62725 97.6308 9.27722C98.7747 9.92718 99.6977 10.8501 100.4 12.0461V8.69225H104.767ZM94.589 24.0185C95.7069 24.0185 96.6948 23.7715 97.5528 23.2775C98.4367 22.7575 99.1257 22.0556 99.6197 21.1716C100.14 20.2877 100.4 19.2997 100.4 18.2078C100.4 17.1158 100.14 16.1409 99.6197 15.2829C99.1257 14.399 98.4367 13.71 97.5528 13.216C96.6948 12.696 95.7069 12.4361 94.589 12.4361C93.497 12.4361 92.509 12.696 91.6251 13.216C90.7671 13.736 90.0782 14.438 89.5582 15.3219C89.0642 16.1799 88.8172 17.1418 88.8172 18.2078C88.8172 19.2737 89.0642 20.2487 89.5582 21.1326C90.0782 22.0166 90.7671 22.7185 91.6251 23.2385C92.509 23.7585 93.497 24.0185 94.589 24.0185Z" fill="#04363d"/>
<path d="M107.976 8.54563H112.305V27.6157H107.976V8.54563Z" fill="#04363d"/>
<path d="M119.847 8.34697V11.3498C120.445 10.2839 121.238 9.45192 122.226 8.85395C123.214 8.25598 124.345 7.95699 125.619 7.95699C128.063 7.95699 129.987 8.72395 131.391 10.2579C132.821 11.7918 133.536 13.8847 133.536 16.5366V27.417H129.168V17.0825C129.168 15.5746 128.739 14.3787 127.881 13.4947C127.049 12.5848 125.944 12.1298 124.566 12.1298C123.136 12.1298 121.992 12.5848 121.134 13.4947C120.276 14.3787 119.847 15.5746 119.847 17.0825V27.417H115.519V8.34697H119.847Z" fill="#04363d"/>
<path d="M143.991 27.4645C141.885 27.4645 140.156 26.8275 138.804 25.5536C137.452 24.2537 136.776 22.4208 136.776 20.0549V12.2553V8.12149L136.814 4.16894L141.148 2.99748L141.144 8.12149H146.136V12.2553H141.144V19.8599C141.144 20.9778 141.469 21.8488 142.119 22.4728C142.795 23.0967 143.614 23.4087 144.576 23.4087C144.81 23.4087 145.07 23.3827 145.356 23.3307C145.668 23.2787 145.915 23.2267 146.097 23.1747L146.331 26.9965C146.019 27.1525 145.655 27.2695 145.239 27.3475C144.823 27.4255 144.407 27.4645 143.991 27.4645Z" fill="#04363d"/>
<path d="M13.9752 0.232422C15.9511 0.232422 17.784 0.583404 19.4739 1.28537C21.1638 1.98733 22.6327 2.97528 23.8807 4.24922C25.1286 5.52315 26.1035 7.00508 26.8055 8.69499C27.5075 10.3849 27.8585 12.2308 27.8585 14.2327C27.8585 16.2346 27.5075 18.0935 26.8055 19.8094C26.1035 21.4993 25.1286 22.9813 23.8807 24.2552C22.6327 25.5291 21.1638 26.5301 19.4739 27.2581C17.784 27.96 15.9511 28.311 13.9752 28.311C12.0253 28.311 10.2053 27.96 8.51543 27.2581C6.82552 26.5301 5.35659 25.5291 4.10866 24.2552C2.86072 22.9813 1.88577 21.4993 1.18381 19.8094C0.481841 18.0935 0.130859 16.2346 0.130859 14.2327C0.130859 12.2308 0.481841 10.3849 1.18381 8.69499C1.88577 7.00508 2.86072 5.52315 4.10866 4.24922C5.35659 2.97528 6.82552 1.98733 8.51543 1.28537C10.2053 0.583404 12.0253 0.232422 13.9752 0.232422ZM13.9752 4.6782C12.2592 4.6782 10.6993 5.10718 9.29539 5.96513C7.91746 6.79709 6.82552 7.92803 6.01956 9.35796C5.2136 10.7879 4.81062 12.4128 4.81062 14.2327C4.81062 16.0526 5.2136 17.6905 6.01956 19.1465C6.82552 20.6024 7.91746 21.7593 9.29539 22.6173C10.6993 23.4492 12.2592 23.8652 13.9752 23.8652C15.7171 23.8652 17.277 23.4492 18.6549 22.6173C20.0588 21.7593 21.1638 20.6024 21.9697 19.1465C22.7757 17.6905 23.1787 16.0526 23.1787 14.2327C23.1787 12.4128 22.7757 10.7879 21.9697 9.35796C21.1638 7.92803 20.0588 6.79709 18.6549 5.96513C17.277 5.10718 15.7171 4.6782 13.9752 4.6782Z" stroke="#04363d" stroke-width="0.259836" mask="url(#path-1-outside-1_2490_1761)"/>
<path d="M41.1584 8.33418C42.8483 8.33418 44.3822 8.78916 45.7602 9.69911C47.1381 10.5831 48.23 11.779 49.036 13.2869C49.868 14.7689 50.2839 16.4328 50.2839 18.2787C50.2839 20.0986 49.868 21.7625 49.036 23.2704C48.23 24.7783 47.1381 25.9743 45.7602 26.8582C44.3822 27.7422 42.8483 28.1842 41.1584 28.1842C39.6245 28.1842 38.2726 27.8592 37.1026 27.2092C35.9587 26.5333 35.0487 25.5843 34.3727 24.3624V34.6847L30.044 35.8716V8.72416H34.3727V12.156C35.0487 10.934 35.9587 9.9981 37.1026 9.34813C38.2726 8.67216 39.6245 8.33418 41.1584 8.33418ZM40.2225 12.468C39.1045 12.468 38.1036 12.728 37.2196 13.2479C36.3356 13.7419 35.6337 14.4309 35.1137 15.3148C34.6197 16.1728 34.3727 17.1607 34.3727 18.2787C34.3727 19.3706 34.6197 20.3586 35.1137 21.2425C35.6337 22.1005 36.3356 22.7894 37.2196 23.3094C38.1036 23.8034 39.1045 24.0504 40.2225 24.0504C41.3144 24.0504 42.2893 23.7904 43.1473 23.2704C44.0313 22.7505 44.7202 22.0615 45.2142 21.2035C45.7342 20.3196 45.9942 19.3446 45.9942 18.2787C45.9942 17.1867 45.7342 16.2118 45.2142 15.3538C44.7202 14.4699 44.0313 13.7679 43.1473 13.2479C42.2893 12.728 41.3144 12.468 40.2225 12.468Z" stroke="#04363d" stroke-width="0.259836" mask="url(#path-1-outside-1_2490_1761)"/>
<path d="M82.3462 16.1019V27.7623H77.9395V17.0768C77.9395 15.6469 77.5755 14.5289 76.8475 13.723C76.1196 12.891 75.1056 12.4751 73.8057 12.4751C73.1037 12.4751 72.4278 12.631 71.7778 12.943C71.1278 13.255 70.5948 13.749 70.1789 14.425C69.7629 15.1009 69.5549 15.9849 69.5549 17.0768V27.7623H65.1871V17.0768C65.1871 15.6209 64.8101 14.49 64.0562 13.684C63.3282 12.878 62.3142 12.4751 61.0143 12.4751C60.3123 12.4751 59.6364 12.631 58.9864 12.943C58.3364 13.255 57.8035 13.749 57.3875 14.425C56.9715 15.1009 56.7635 15.9849 56.7635 17.0768V27.7623H52.4347V8.69225H56.7635V11.3831C57.4655 10.2132 58.3624 9.40721 59.4544 8.96523C60.5463 8.52326 61.5863 8.30227 62.5742 8.30227C63.9522 8.30227 65.1221 8.57525 66.0841 9.12122C67.072 9.6412 67.865 10.4862 68.463 11.6561C69.0089 10.6161 69.8279 9.79719 70.9198 9.19922C72.0378 8.60125 73.2467 8.30227 74.5466 8.30227C76.0806 8.30227 77.4325 8.62725 78.6024 9.27722C79.7724 9.90118 80.6823 10.7981 81.3323 11.9681C82.0083 13.112 82.3462 14.49 82.3462 16.1019Z" stroke="#04363d" stroke-width="0.259836" mask="url(#path-1-outside-1_2490_1761)"/>
<path d="M104.767 8.69225V27.7623H100.4V24.4085C99.6977 25.6044 98.7747 26.5273 97.6308 27.1773C96.5128 27.8273 95.1869 28.1523 93.653 28.1523C91.9631 28.1523 90.4162 27.7103 89.0122 26.8263C87.6343 25.9164 86.5423 24.7074 85.7364 23.1995C84.9304 21.6916 84.5274 20.0277 84.5274 18.2078C84.5274 16.3619 84.9304 14.6979 85.7364 13.216C86.5423 11.7081 87.6343 10.5122 89.0122 9.6282C90.4162 8.74424 91.9631 8.30227 93.653 8.30227C95.1869 8.30227 96.5128 8.62725 97.6308 9.27722C98.7747 9.92718 99.6977 10.8501 100.4 12.0461V8.69225H104.767ZM94.589 24.0185C95.7069 24.0185 96.6948 23.7715 97.5528 23.2775C98.4367 22.7575 99.1257 22.0556 99.6197 21.1716C100.14 20.2877 100.4 19.2997 100.4 18.2078C100.4 17.1158 100.14 16.1409 99.6197 15.2829C99.1257 14.399 98.4367 13.71 97.5528 13.216C96.6948 12.696 95.7069 12.4361 94.589 12.4361C93.497 12.4361 92.509 12.696 91.6251 13.216C90.7671 13.736 90.0782 14.438 89.5582 15.3219C89.0642 16.1799 88.8172 17.1418 88.8172 18.2078C88.8172 19.2737 89.0642 20.2487 89.5582 21.1326C90.0782 22.0166 90.7671 22.7185 91.6251 23.2385C92.509 23.7585 93.497 24.0185 94.589 24.0185Z" stroke="#04363d" stroke-width="0.259836" mask="url(#path-1-outside-1_2490_1761)"/>
<path d="M107.976 8.54563H112.305V27.6157H107.976V8.54563Z" stroke="#04363d" stroke-width="0.259836" mask="url(#path-1-outside-1_2490_1761)"/>
<path d="M119.847 8.34697V11.3498C120.445 10.2839 121.238 9.45192 122.226 8.85395C123.214 8.25598 124.345 7.95699 125.619 7.95699C128.063 7.95699 129.987 8.72395 131.391 10.2579C132.821 11.7918 133.536 13.8847 133.536 16.5366V27.417H129.168V17.0825C129.168 15.5746 128.739 14.3787 127.881 13.4947C127.049 12.5848 125.944 12.1298 124.566 12.1298C123.136 12.1298 121.992 12.5848 121.134 13.4947C120.276 14.3787 119.847 15.5746 119.847 17.0825V27.417H115.519V8.34697H119.847Z" stroke="#04363d" stroke-width="0.259836" mask="url(#path-1-outside-1_2490_1761)"/>
<path d="M143.991 27.4645C141.885 27.4645 140.156 26.8275 138.804 25.5536C137.452 24.2537 136.776 22.4208 136.776 20.0549V12.2553V8.12149L136.814 4.16894L141.148 2.99748L141.144 8.12149H146.136V12.2553H141.144V19.8599C141.144 20.9778 141.469 21.8488 142.119 22.4728C142.795 23.0967 143.614 23.4087 144.576 23.4087C144.81 23.4087 145.07 23.3827 145.356 23.3307C145.668 23.2787 145.915 23.2267 146.097 23.1747L146.331 26.9965C146.019 27.1525 145.655 27.2695 145.239 27.3475C144.823 27.4255 144.407 27.4645 143.991 27.4645Z" stroke="#04363d" stroke-width="0.259836" mask="url(#path-1-outside-1_2490_1761)"/>
<path d="M110.286 0.0771484C111.476 0.0772577 112.459 1.0062 112.526 2.19434L112.581 3.16504L108.042 4.41309V2.32129C108.042 1.08188 109.047 0.0771484 110.286 0.0771484Z" fill="#04363d" stroke="#04363d" stroke-width="0.153853"/>
</svg>
